<svg width="354" height="471" viewBox="0 0 354 471" fill="none" xmlns="http://www.w3.org/2000/svg">
<g clip-path="url(#clip0_6742_3)">
<path d="M1.06229 18.9403C1.06229 9.01238 10.6796 0.964722 22.5438 0.964722H331.852C343.725 0.964722 353.347 9.02496 353.334 18.961L352.739 452.172C352.725 462.092 343.111 470.127 331.257 470.127H22.5438C10.6796 470.127 1.06229 462.079 1.06229 452.151V18.9403Z" fill="url(#paint0_linear_6742_3)"/>
<g filter="url(#filter0_d_6742_3)">
<path fill-rule="evenodd" clip-rule="evenodd" d="M0.417847 19.3896C0.417847 9.46172 10.0351 1.41406 21.8993 1.41406H331.233C343.097 1.41406 352.714 9.46172 352.714 19.3896V452.601C352.714 462.529 343.097 470.576 331.233 470.576H21.8993C10.0351 470.576 0.417847 462.529 0.417847 452.601V19.3896Z" fill="url(#paint1_linear_6742_3)"/>
</g>
<g opacity="0.8">
<mask id="mask0_6742_3" style="mask-type:alpha" maskUnits="userSpaceOnUse" x="0" y="1" width="353" height="470">
<g opacity="0.8">
<path opacity="0.8" fill-rule="evenodd" clip-rule="evenodd" d="M0.417847 19.3896C0.417847 9.46172 10.0351 1.41406 21.8993 1.41406H331.233C343.097 1.41406 352.714 9.46172 352.714 19.3896V452.601C352.714 462.529 343.097 470.576 331.233 470.576H21.8993C10.0351 470.576 0.417847 462.529 0.417847 452.601V19.3896Z" fill="url(#paint2_linear_6742_3)"/>
</g>
</mask>
<g mask="url(#mask0_6742_3)">
<g opacity="0.8">
<path opacity="0.8" d="M206.059 1.41402C173.246 1.41402 139.315 -3.62363 99.7686 -16.2964C88.4661 -19.9257 78.5202 -23.217 69.4303 -26.2126C25.8863 -40.5904 1.90007 -48.5041 -58.6562 -56.6354L-57.8947 -60.6017C3.18573 -52.3913 27.3374 -44.4183 71.1907 -29.9408C80.2559 -26.946 90.2265 -23.6736 101.482 -20.0245C196.898 10.5762 259.549 -4.1593 354.347 -26.3313L379.355 -32.0628L380.64 -28.2349C372.307 -26.3363 363.987 -24.3994 355.68 -22.4243C298.977 -9.19605 253.672 1.41402 206.059 1.41402Z" fill="url(#paint3_linear_6742_3)"/>
<path opacity="0.8" d="M206.073 14.8957C173.259 14.8957 139.326 9.76726 99.7772 -3.08527C88.4737 -6.76667 78.5267 -10.1047 69.4368 -13.1426C25.8906 -27.7046 1.90436 -35.7496 -58.6562 -43.9959L-57.8947 -48.0188C3.18895 -39.6718 27.3417 -31.6071 71.1982 -16.9238C80.2634 -13.8859 90.2351 -10.5478 101.49 -6.86643C196.936 24.1882 259.566 9.2235 354.369 -13.2433C362.46 -15.2538 370.765 -17.1449 379.355 -19.1563L380.64 -15.2736L355.583 -9.36054C298.996 4.15529 253.689 14.8957 206.073 14.8957Z" fill="url(#paint4_linear_6742_3)"/>
<path opacity="0.8" d="M206.073 28.3774C173.259 28.3774 139.326 23.2705 99.7772 10.4018C89.6412 7.09834 79.5276 3.74704 69.4368 0.348076C25.8906 -14.2292 1.90436 -22.2508 -58.6562 -30.516L-57.8947 -34.5371C3.18895 -26.2126 27.3417 -18.1299 71.1982 -3.45196C80.2634 -0.415886 90.2351 2.9024 101.49 6.60178C196.912 37.6267 259.566 22.6872 354.393 0.207867C362.46 -1.8027 370.765 -3.69283 379.355 -5.68362L380.64 -1.82337C372.313 0.126778 363.992 2.09721 355.679 4.08789C298.996 17.6199 253.689 28.3774 206.073 28.3774Z" fill="url(#paint5_linear_6742_3)"/>
<path opacity="0.8" d="M206.073 40.9603C173.259 40.9603 139.326 35.8498 99.7772 22.9937C88.4737 19.3114 78.5267 15.9715 69.4368 12.9337C25.8906 -1.65351 1.90436 -9.6814 -58.6562 -17.9304L-57.8947 -21.9542C3.18895 -13.6243 27.3417 -5.53624 71.1982 9.1507C80.2634 12.1886 90.2351 15.5087 101.49 19.2107C196.912 50.2761 259.566 35.3069 354.369 12.833C362.46 10.8206 370.765 8.9296 379.355 6.91723L380.64 10.8L355.583 16.7157C298.996 30.1965 253.689 40.9603 206.073 40.9603Z" fill="url(#paint6_linear_6742_3)"/>
<path opacity="0.8" d="M206.073 53.5432C173.259 53.5432 139.326 48.4345 99.7772 35.5622C89.6412 32.2575 79.5276 28.905 69.4368 25.5049C25.8906 10.9429 1.90436 2.91856 -58.6562 -5.34841L-57.8947 -9.37134C3.18895 -1.04416 27.3417 7.04036 71.1982 21.7237C81.2827 25.1034 91.3801 28.4559 101.49 31.781C196.936 62.8158 259.566 47.871 354.369 25.3844C362.46 23.373 370.765 21.4828 379.355 19.4705L380.64 23.3532C372.05 25.3646 363.745 27.3761 355.654 29.2671C298.996 42.783 253.689 53.5432 206.073 53.5432V53.5432Z" fill="url(#paint7_linear_6742_3)"/>
<path opacity="0.8" d="M206.059 66.1261C173.246 66.1261 139.315 61.0884 99.7686 48.4156C88.4661 44.7864 78.5202 41.495 69.4303 38.4994C25.8863 24.1208 1.90007 16.2079 -58.6562 8.07666L-57.8947 4.11035C3.18573 12.3207 27.3374 20.2938 71.1907 34.7713C80.2559 37.766 90.2265 41.0385 101.482 44.6875C196.898 75.3089 259.549 60.5527 354.37 38.3808L379.355 32.5899L380.64 36.4169C372.051 38.4005 363.746 40.3841 355.68 42.2284C298.977 55.516 253.672 66.1261 206.059 66.1261Z" fill="url(#paint8_linear_6742_3)"/>
<path opacity="0.8" d="M206.073 79.6077C173.259 79.6077 139.326 74.5719 99.7772 61.8838C89.6418 58.6266 79.5281 55.322 69.4368 51.9703C25.8906 37.6168 1.90436 29.7058 -58.6562 21.5575L-57.8947 17.592C3.18895 25.7997 27.3417 33.7701 71.1982 48.2224C80.2634 51.2171 90.2351 54.5076 101.49 58.1359C196.912 88.7277 259.566 73.9967 354.369 51.8319C362.46 49.8492 370.765 47.9851 379.355 46.0024L380.64 49.8294L355.583 55.6984C298.996 68.9806 253.689 79.6077 206.073 79.6077Z" fill="url(#paint9_linear_6742_3)"/>
<path opacity="0.8" d="M206.073 92.1906C173.259 92.1906 139.326 87.153 99.7772 74.4802C88.4737 70.8509 78.5267 67.5596 69.4368 64.564C25.8906 50.1853 1.90436 42.2725 -58.6562 34.1412L-57.8947 30.1749C3.1664 38.3853 27.3417 46.3583 71.1746 60.8358C81.2673 64.1681 91.3726 67.4735 101.49 70.7521C196.912 101.353 259.566 86.6173 354.369 64.4453L379.355 58.6347L380.64 62.4411C372.313 64.3645 363.992 66.308 355.679 68.2714C298.996 81.5797 253.689 92.1897 206.073 92.1897V92.1906Z" fill="url(#paint10_linear_6742_3)"/>
<path opacity="0.8" d="M206.073 104.774C173.259 104.774 139.326 99.7179 99.7772 87.0487C88.4737 83.4212 78.5267 80.1299 69.4368 77.1361C25.8906 62.7826 1.90436 54.8518 -58.6562 46.7232L-57.8947 42.7578C3.18895 50.9457 27.3417 58.916 71.1982 73.3891C80.2634 76.3829 90.2351 79.6742 101.49 83.3017C196.912 113.913 259.566 99.1624 354.393 77.0174C362.452 75.1138 370.773 73.1707 379.355 71.188L380.64 75.015L355.583 80.8633C298.996 94.1464 253.689 104.774 206.073 104.774V104.774Z" fill="url(#paint11_linear_6742_3)"/>
<path opacity="0.8" d="M206.073 117.356C173.259 117.356 139.326 112.322 99.7772 99.6379C89.6418 96.3817 79.5282 93.0783 69.4368 89.728C25.8906 75.3583 1.90436 67.4508 -58.6562 59.3043L-57.8947 55.3407C3.18895 63.5465 27.3417 71.5133 71.1982 85.9819C80.2634 88.9748 90.2351 92.2445 101.49 95.8918C196.912 126.474 259.566 111.747 354.369 89.5887C362.46 87.6069 370.765 85.7437 379.355 83.7816L380.64 87.5871C372.313 89.5093 363.992 91.4515 355.679 93.4139C298.996 106.693 253.689 117.356 206.073 117.356V117.356Z" fill="url(#paint12_linear_6742_3)"/>
<path opacity="0.8" d="M206.073 130.838C173.259 130.838 139.326 125.728 99.7772 112.871C88.4737 109.189 78.5267 105.849 69.4368 102.811C25.8906 88.2243 1.90436 80.1964 -58.6562 71.9474L-57.8947 67.9236C3.1664 76.2535 27.3417 84.3416 71.1746 99.0285C81.267 102.409 91.3723 105.762 101.49 109.089C196.912 140.154 259.566 125.185 354.369 102.711C362.46 100.698 370.765 98.8074 379.355 96.795L380.64 100.679L355.583 106.594C298.996 120.074 253.689 130.838 206.073 130.838V130.838Z" fill="url(#paint13_linear_6742_3)"/>
<path opacity="0.8" d="M206.073 143.421C173.259 143.421 139.326 138.387 99.7772 125.702C89.6418 122.446 79.5282 119.143 69.4368 115.793C25.8906 101.423 1.90436 93.5154 -58.6562 85.3689L-57.8947 81.4053C3.18895 89.6102 27.3417 97.5779 71.1982 112.046C80.2634 115.039 90.2351 118.309 101.49 121.956C196.912 152.538 259.566 137.812 354.393 115.653C362.46 113.671 370.765 111.808 379.355 109.826L380.64 113.652C372.313 115.574 363.992 117.516 355.679 119.478C298.996 132.797 253.689 143.421 206.073 143.421Z" fill="url(#paint14_linear_6742_3)"/>
<path opacity="0.8" d="M206.073 156.004C173.259 156.004 139.326 150.966 99.7772 138.293C88.4737 134.664 78.5267 131.372 69.4368 128.377C25.8906 113.999 1.90436 106.086 -58.6562 97.9545L-57.8947 93.9882C3.18895 102.198 27.3417 110.172 71.1982 124.649C81.2829 127.982 91.3803 131.287 101.49 134.565C196.912 165.166 259.566 150.431 354.369 128.259L379.355 122.448L380.64 126.275C372.05 128.259 363.745 130.241 355.679 132.086C298.996 145.433 253.689 156.004 206.073 156.004V156.004Z" fill="url(#paint15_linear_6742_3)"/>
<path opacity="0.8" d="M206.073 169.486C173.259 169.486 139.326 164.377 99.7772 151.505C88.4737 147.823 78.5267 144.485 69.4368 141.447C25.8906 126.885 1.90436 118.86 -58.6562 110.594L-57.8947 106.571C3.1664 114.898 27.3417 122.984 71.1746 137.646C80.2645 140.683 90.2104 144.022 101.49 147.703C196.912 178.758 259.566 163.794 354.369 141.327C362.46 139.315 370.765 137.425 379.355 135.414L380.64 139.296L355.583 145.229C298.996 158.705 253.689 169.486 206.073 169.486V169.486Z" fill="url(#paint16_linear_6742_3)"/>
<path opacity="0.8" d="M206.059 182.069C173.246 182.069 139.315 176.958 99.7686 164.102C88.4661 160.42 78.5202 157.08 69.4303 154.042C25.8863 139.455 1.90007 131.427 -58.6562 123.178L-57.8947 119.154C3.18573 127.484 27.3374 135.572 71.1907 150.259C80.2559 153.297 90.2265 156.617 101.482 160.319C196.898 191.364 259.549 176.415 354.37 153.921L379.355 148.046L380.64 151.909C372.313 153.86 363.993 155.832 355.68 157.824C298.977 171.305 253.695 182.069 206.059 182.069Z" fill="url(#paint17_linear_6742_3)"/>
<path opacity="0.8" d="M206.073 195.55C173.259 195.55 139.326 190.421 99.7772 177.569C88.4737 173.888 78.5267 170.55 69.4368 167.512C25.8906 152.95 1.90436 144.905 -58.6562 136.659L-57.8947 132.636C3.18895 140.963 27.3417 149.048 71.1982 163.731C80.2634 166.768 90.2351 170.107 101.49 173.787C196.912 204.843 259.566 189.878 354.369 167.411C362.46 165.401 370.765 163.51 379.355 161.498L380.64 165.38L355.583 171.294C298.996 184.769 253.689 195.55 206.073 195.55V195.55Z" fill="url(#paint18_linear_6742_3)"/>
<path opacity="0.8" d="M206.073 208.133C173.259 208.133 139.326 203.099 99.7772 190.414C89.6418 187.158 79.5282 183.855 69.4368 180.505C25.8906 166.135 1.90436 158.227 -58.6562 150.081L-57.8947 146.117C3.18895 154.322 27.3417 162.29 71.1982 176.758C80.2634 179.751 90.2351 183.021 101.49 186.668C196.912 217.25 259.566 202.524 354.369 180.365C362.46 178.483 370.765 176.52 379.355 174.558L380.64 178.364C372.313 180.286 363.993 182.229 355.679 184.19C298.996 197.529 253.689 208.133 206.073 208.133V208.133Z" fill="url(#paint19_linear_6742_3)"/>
<path opacity="0.8" d="M206.073 220.716C173.259 220.716 139.326 215.678 99.7772 203.005C88.4737 199.376 78.5267 196.084 69.4368 193.089C25.8906 178.711 1.90436 170.798 -58.6562 162.666L-57.8947 158.7C3.18895 166.911 27.3417 174.884 71.1982 189.361C81.2829 192.694 91.3803 195.999 101.49 199.277C196.936 229.898 259.566 215.143 354.369 192.99C362.46 191.007 370.765 189.143 379.355 187.16L380.64 190.987L355.583 196.818C298.996 210.106 253.689 220.716 206.073 220.716V220.716Z" fill="url(#paint20_linear_6742_3)"/>
<path opacity="0.8" d="M206.073 233.299C173.259 233.299 139.326 228.265 99.7772 215.58C89.6418 212.324 79.5282 209.021 69.4368 205.67C25.8906 191.301 1.90436 183.393 -58.6562 175.247L-57.8947 171.283C3.18895 179.488 27.3417 187.456 71.1982 201.924C80.2634 204.917 90.2351 208.187 101.49 211.834C196.912 242.416 259.566 227.69 354.369 205.531C362.46 203.549 370.765 201.686 379.355 199.704L380.64 203.53C372.313 205.452 363.992 207.394 355.679 209.356C298.996 222.695 253.689 233.299 206.073 233.299V233.299Z" fill="url(#paint21_linear_6742_3)"/>
<path opacity="0.8" d="M206.059 246.78C173.246 246.78 139.315 241.67 99.7686 228.814C88.4661 225.132 78.5202 221.792 69.4303 218.754C25.8863 204.167 1.90007 196.139 -58.6562 187.89L-57.8947 183.866C3.18573 192.196 27.3374 200.284 71.1907 214.971C80.2559 218.009 90.2265 221.329 101.482 225.031C196.898 256.096 259.549 241.127 354.347 218.633L379.355 212.758L380.64 216.641C372.051 218.653 363.746 220.665 355.68 222.536C298.977 236.017 253.672 246.78 206.059 246.78V246.78Z" fill="url(#paint22_linear_6742_3)"/>
<path opacity="0.8" d="M206.073 259.363C173.259 259.363 139.326 254.308 99.7772 241.639C88.4737 238.011 78.5267 234.72 69.4368 231.726C25.8906 217.372 1.90436 209.461 -58.6562 201.313L-57.8947 197.348C3.18895 205.555 27.3417 213.526 71.1982 227.979C80.2634 230.973 90.2351 234.264 101.49 237.892C196.936 268.503 259.566 253.752 354.369 231.607C362.46 229.625 370.765 227.761 379.355 225.778L380.64 229.605C372.05 231.588 363.745 233.569 355.654 235.433C298.996 248.677 253.689 259.363 206.073 259.363V259.363Z" fill="url(#paint23_linear_6742_3)"/>
<path opacity="0.8" d="M206.073 271.946C173.259 271.946 139.326 266.909 99.7772 254.236C88.4737 250.607 78.5267 247.314 69.4368 244.32C25.8906 229.941 1.90436 222.028 -58.6562 213.897L-57.8947 209.931C3.18895 218.141 27.3417 226.114 71.1982 240.592C81.2829 243.924 91.3803 247.229 101.49 250.508C196.936 281.109 259.566 266.373 354.369 244.201L379.355 238.39L380.64 242.198C372.05 244.181 363.745 246.164 355.654 248.029C298.996 261.336 253.689 271.946 206.073 271.946V271.946Z" fill="url(#paint24_linear_6742_3)"/>
<path opacity="0.8" d="M206.073 284.529C173.259 284.529 139.326 279.474 99.7772 266.804C89.6416 263.548 79.528 260.243 69.4368 256.892C25.8906 242.537 1.90436 234.627 -58.6562 226.479L-57.8947 222.513C3.18895 230.721 27.3417 238.711 71.1982 253.164C80.2634 256.158 90.2351 259.45 101.49 263.077C196.936 293.689 259.566 278.938 354.393 256.793C362.452 254.889 370.773 252.946 379.355 250.963L380.64 254.79L355.583 260.619C298.996 273.902 253.712 284.529 206.073 284.529V284.529Z" fill="url(#paint25_linear_6742_3)"/>
<path opacity="0.8" d="M206.073 298.011C173.259 298.011 139.326 292.904 99.7772 280.035C89.6411 276.732 79.5275 273.381 69.4368 269.982C25.9164 255.404 1.92799 247.382 -58.6562 239.118L-57.8947 235.096C3.18895 243.421 27.3417 251.504 71.1982 266.182C81.2828 269.56 91.3802 272.911 101.49 276.235C196.912 307.26 259.566 292.321 354.393 269.841C362.46 267.931 370.765 265.941 379.355 263.95L380.64 267.81C372.313 269.761 363.992 271.731 355.679 273.721C298.996 287.294 253.689 298.011 206.073 298.011V298.011Z" fill="url(#paint26_linear_6742_3)"/>
<path opacity="0.8" d="M206.073 311.493C173.259 311.493 139.326 306.382 99.7772 293.526C88.4737 289.844 78.5267 286.504 69.4368 283.466C25.8906 268.879 1.90436 260.851 -58.6562 252.602L-57.8947 248.578C3.1664 256.908 27.3417 264.996 71.1746 279.683C81.2668 283.064 91.3721 286.417 101.49 289.743C196.912 320.808 259.566 305.839 354.393 283.365C362.452 281.434 370.773 279.462 379.355 277.45L380.64 281.333C372.05 283.345 363.745 285.357 355.679 287.228C298.996 300.729 253.689 311.493 206.073 311.493V311.493Z" fill="url(#paint27_linear_6742_3)"/>
<path opacity="0.8" d="M206.073 324.076C173.259 324.076 139.326 318.967 99.7772 306.095C89.6412 302.79 79.5276 299.437 69.4368 296.037C25.8906 281.475 1.90436 273.45 -58.6562 265.184L-57.8947 261.161C3.1664 269.488 27.3417 277.574 71.1746 292.236C80.2645 295.273 90.2104 298.612 101.49 302.293C196.936 333.328 259.566 318.384 354.369 295.897C362.46 293.986 370.765 291.994 379.355 289.983L380.64 293.865C372.05 295.876 363.745 297.888 355.654 299.779C298.996 313.295 253.689 324.076 206.073 324.076V324.076Z" fill="url(#paint28_linear_6742_3)"/>
<path opacity="0.8" d="M206.073 336.658C173.259 336.658 139.326 331.621 99.7772 318.948C88.4737 315.319 78.5267 312.026 69.4368 309.032C25.8906 294.653 1.90436 286.74 -58.6562 278.609L-57.8947 274.643C3.1664 282.853 27.3417 290.826 71.1746 305.304C81.2672 308.636 91.3725 311.941 101.49 315.22C196.936 345.84 259.566 331.085 354.369 308.913L379.355 303.102L380.64 306.929C372.05 308.913 363.745 310.896 355.654 312.741C298.996 326.048 253.689 336.658 206.073 336.658V336.658Z" fill="url(#paint29_linear_6742_3)"/>
<path opacity="0.8" d="M206.073 349.241C173.259 349.241 139.326 344.186 99.7772 331.516C88.4737 327.889 78.5267 324.598 69.4368 321.604C25.8906 307.249 1.90436 299.32 -58.6562 291.191L-57.8947 287.226C3.1664 295.433 27.3417 303.384 71.1746 317.857C80.2645 320.851 90.2104 324.142 101.49 327.769C196.936 358.381 259.566 343.63 354.369 321.485C362.46 319.502 370.765 317.638 379.355 315.656L380.64 319.483L355.583 325.331C298.996 338.614 253.689 349.241 206.073 349.241V349.241Z" fill="url(#paint30_linear_6742_3)"/>
<path opacity="0.8" d="M206.073 362.723C173.259 362.723 139.326 357.613 99.7772 344.756C89.6495 341.433 79.5359 338.08 69.4368 334.696C25.8906 320.109 1.90436 312.081 -58.6562 303.832L-57.8947 299.808C3.18895 308.138 27.3417 316.226 71.1982 330.913C81.2825 334.294 91.3799 337.648 101.49 340.973C196.936 372.018 259.566 357.07 354.393 334.575C362.46 332.664 370.765 330.673 379.355 328.68L380.64 332.544C372.313 334.495 363.992 336.467 355.679 338.459C298.996 351.959 253.712 362.723 206.073 362.723V362.723Z" fill="url(#paint31_linear_6742_3)"/>
<path opacity="0.8" d="M206.073 375.306C173.259 375.306 139.326 370.268 99.7772 357.595C89.6417 354.337 79.5281 351.032 69.4368 347.679C25.9164 333.321 1.92799 325.388 -58.6562 317.256L-57.8947 313.29C3.18895 321.5 27.3417 329.473 71.1982 343.951C80.2634 346.946 90.2351 350.238 101.49 353.867C196.936 384.489 259.566 369.733 354.393 347.58C362.452 345.677 370.773 343.733 379.355 341.75L380.64 345.577L355.583 351.408C298.996 364.696 253.712 375.306 206.073 375.306V375.306Z" fill="url(#paint32_linear_6742_3)"/>
<path opacity="0.8" d="M206.073 387.889C173.259 387.889 139.326 382.855 99.7772 370.17C89.6418 366.914 79.5282 363.611 69.4368 360.26C25.9164 345.891 1.92799 337.983 -58.6562 329.837L-57.8947 325.873C3.18895 334.078 27.3417 342.046 71.1982 356.514C80.2634 359.507 90.2351 362.777 101.49 366.424C196.912 397.006 259.566 382.279 354.393 360.121C362.46 358.239 370.765 356.276 379.355 354.294L380.64 358.119C372.313 360.042 363.992 361.984 355.679 363.946C298.996 377.285 253.689 387.889 206.073 387.889V387.889Z" fill="url(#paint33_linear_6742_3)"/>
<path opacity="0.8" d="M206.073 400.472C173.259 400.472 139.326 395.434 99.7772 382.761C88.4737 379.132 78.5267 375.84 69.4368 372.845C25.8906 358.466 1.90436 350.553 -58.6562 342.422L-57.8947 338.456C3.1664 346.666 27.3417 354.639 71.1746 369.117C81.2672 372.449 91.3725 375.755 101.49 379.033C196.936 409.654 259.566 394.898 354.369 372.746C362.46 370.763 370.765 368.898 379.355 366.915L380.64 370.743L355.583 376.494C298.996 389.782 253.689 400.472 206.073 400.472V400.472Z" fill="url(#paint34_linear_6742_3)"/>
<path opacity="0.8" d="M206.073 413.055C173.259 413.055 139.326 408.019 99.7772 395.33C89.6416 392.073 79.528 388.769 69.4368 385.417C25.8906 371.063 1.90436 363.153 -58.6562 355.004L-57.8947 351.039C3.1664 359.246 27.3417 367.217 71.1746 381.67C80.2645 384.664 90.2104 387.954 101.49 391.583C196.936 422.174 259.566 407.443 354.369 385.279C362.46 383.395 370.765 381.432 379.355 379.449L380.64 383.276C372.05 385.258 363.745 387.241 355.654 389.105C298.996 402.427 253.689 413.055 206.073 413.055V413.055Z" fill="url(#paint35_linear_6742_3)"/>
<path opacity="0.8" d="M206.059 426.536C173.246 426.536 139.315 421.499 99.7686 408.826C88.4661 405.197 78.5202 401.904 69.4303 398.91C25.8863 384.531 1.90007 376.618 -58.6562 368.487L-57.8947 364.521C3.1621 372.731 27.3374 380.704 71.1671 395.181C81.2594 398.514 91.3643 401.819 101.482 405.098C196.922 435.698 259.549 420.963 354.347 398.791L379.355 393.079L380.64 396.907C372.051 398.89 363.746 400.873 355.656 402.718C298.977 415.926 253.672 426.536 206.059 426.536V426.536Z" fill="url(#paint36_linear_6742_3)"/>
<path opacity="0.8" d="M206.073 440.018C173.259 440.018 139.326 434.89 99.7772 422.037C89.6412 418.732 79.5276 415.38 69.4368 411.98C25.8906 397.418 1.90436 389.393 -58.6562 381.126L-57.8947 377.104C3.18895 385.431 27.3417 393.516 71.1982 408.179C80.2634 411.216 90.2351 414.555 101.49 418.235C196.936 449.291 259.566 434.326 354.369 411.859C362.46 409.848 370.765 407.958 379.355 405.946L380.64 409.828L355.583 415.762C298.996 429.297 253.689 440.018 206.073 440.018V440.018Z" fill="url(#paint37_linear_6742_3)"/>
<path opacity="0.8" d="M206.073 452.601C173.259 452.601 139.326 447.492 99.7772 434.64C88.4737 430.959 78.5267 427.62 69.4368 424.583C25.9164 410 1.92799 401.975 -58.6562 393.709L-57.8947 389.686C3.18895 398.013 27.3417 406.099 71.1982 420.781C81.2826 424.161 91.38 427.513 101.49 430.838C196.936 461.873 259.566 446.929 354.393 424.442C362.46 422.531 370.765 420.54 379.355 418.549L380.64 422.411C372.313 424.362 363.992 426.333 355.679 428.324C298.996 441.841 253.712 452.601 206.073 452.601V452.601Z" fill="url(#paint38_linear_6742_3)"/>
<path opacity="0.8" d="M206.073 465.184C173.259 465.184 139.326 460.054 99.7772 447.203C89.6412 443.898 79.5276 440.546 69.4368 437.145C25.9164 422.583 1.92799 414.539 -58.6562 406.292L-57.8947 402.269C3.18895 410.596 27.3417 418.682 71.1982 433.364C80.2634 436.401 90.2351 439.74 101.49 443.421C196.912 474.476 259.566 459.512 354.393 437.046C362.452 435.114 370.773 433.143 379.355 431.132L380.64 435.014L355.583 440.928C298.996 454.403 253.689 465.184 206.073 465.184V465.184Z" fill="url(#paint39_linear_6742_3)"/>
<path opacity="0.8" d="M206.073 478.665C173.259 478.665 139.326 473.557 99.7772 460.684C89.6412 457.38 79.5276 454.027 69.4368 450.627C25.8906 436.065 1.90436 428.04 -58.6562 419.774L-57.8947 415.751C3.1664 424.078 27.3417 432.164 71.1746 446.846C81.2669 450.225 91.3722 453.578 101.49 456.902C196.912 487.937 259.566 472.993 354.393 450.507C362.46 448.596 370.765 446.605 379.355 444.594L380.64 448.475C372.313 450.426 363.992 452.398 355.679 454.389C298.996 467.905 253.689 478.665 206.073 478.665V478.665Z" fill="url(#paint40_linear_6742_3)"/>
<path opacity="0.8" d="M206.073 491.248C173.259 491.248 139.326 486.21 99.7772 473.538C88.4737 469.908 78.5267 466.616 69.4368 463.622C25.8906 449.243 1.90436 441.33 -58.6562 433.199L-57.8947 429.232C3.1664 437.443 27.3417 445.416 71.1746 459.893C81.2672 463.226 91.3725 466.531 101.49 469.81C196.936 500.43 259.566 485.675 354.369 463.523C362.46 461.539 370.765 459.675 379.355 457.692L380.64 461.519L355.583 467.351C298.996 480.638 253.689 491.248 206.073 491.248V491.248Z" fill="url(#paint41_linear_6742_3)"/>
<path opacity="0.8" d="M206.073 503.831C173.259 503.831 139.326 498.795 99.7772 486.106C89.6416 482.85 79.528 479.545 69.4368 476.194C25.8906 461.839 1.90436 453.929 -58.6562 445.781L-57.8947 441.815C3.1664 450.023 27.3417 457.993 71.1746 472.447C80.2645 475.441 90.2104 478.731 101.49 482.359C196.936 512.971 259.566 498.22 354.369 476.075C362.46 474.191 370.765 472.228 379.355 470.246L380.64 474.073C372.05 476.055 363.745 478.037 355.654 479.901C298.996 493.204 253.689 503.831 206.073 503.831V503.831Z" fill="url(#paint42_linear_6742_3)"/>
</g>
</g>
</g>
<path fill-rule="evenodd" clip-rule="evenodd" d="M137.842 114.751C120.528 102.786 122.699 77.7671 127.608 54.5454C127.805 53.6106 127.938 52.9851 127.061 52.8979C121.468 52.3433 102.834 54.9157 97.4862 56.1515C96.0942 56.4723 95.9696 56.813 95.946 57.5581C94.4938 104.046 128.866 114.881 137.389 115.302C137.599 115.313 138.108 115.368 138.193 115.265C138.277 115.162 138.025 114.883 137.842 114.751V114.751Z" fill="white"/>
<path fill-rule="evenodd" clip-rule="evenodd" d="M69.9147 76.0396C69.1006 76.4962 68.4862 76.5645 68.686 77.4301C70.8589 86.8223 82.6715 115.472 121.887 115.377C122.817 115.413 123.757 115.269 123.023 114.882C117.568 111.329 98.1726 106.808 90.2319 70.8914C90.1503 70.5247 90.161 69.128 88.4608 69.5568C79.9681 71.9691 70.73 75.5831 69.9147 76.0396V76.0396Z" fill="white"/>
<path fill-rule="evenodd" clip-rule="evenodd" d="M58.6735 99.442C57.8679 100.2 57.6971 100.263 57.8926 100.864C59.6928 106.424 70.4722 116.024 96.8439 115.273C98.0909 115.237 98.0963 114.915 97.4454 114.506C97.0222 114.24 88.6852 111.971 81.0636 106.027C77.2496 103.054 73.37 98.537 70.7665 94.2435C70.1199 93.0715 69.5914 92.2114 68.8611 92.5835C66.4519 93.813 60.6637 97.5699 58.6735 99.442Z" fill="white"/>
<path d="M221.507 54.4419H185.851C180.419 54.4419 176.015 58.1628 176.015 62.752V107.056C176.015 111.646 180.419 115.366 185.851 115.366H221.507C226.94 115.366 231.344 111.646 231.344 107.056V62.7529C231.344 58.1628 226.94 54.4419 221.507 54.4419Z" fill="url(#paint43_linear_6742_3)"/>
<path fill-rule="evenodd" clip-rule="evenodd" d="M193.029 74.4075L193.351 53.537L194.151 53.5493L193.829 74.4199L193.029 74.4075ZM210.214 75.3063L210.536 54.4358L211.336 54.4481L211.014 75.3186L210.214 75.3063Z" fill="white"/>
<path fill-rule="evenodd" clip-rule="evenodd" d="M226.677 76.0134L230.896 72.9911L231.362 73.6414L226.934 76.8134H224.234L219.798 74.9278H186.648L182.71 77.3141H179.369L176.087 74.4245L176.616 73.824L179.671 76.5141H182.486L186.425 74.1278H219.961L224.397 76.0134H226.677Z" fill="#A2A2A2"/>
<path fill-rule="evenodd" clip-rule="evenodd" d="M226.677 76.9122L230.896 73.8899L231.362 74.5402L226.934 77.7122H224.234L219.798 75.8266H186.648L182.71 78.2129H179.369L176.087 75.3233L176.616 74.7228L179.671 77.4129H182.486L186.425 75.0266H219.961L224.397 76.9122H226.677Z" fill="white"/>
<path fill-rule="evenodd" clip-rule="evenodd" d="M210.702 115.379V96.6846H211.502V115.379H210.702Z" fill="#A1A1A1"/>
<path fill-rule="evenodd" clip-rule="evenodd" d="M224.358 93.5881H227.004L231.373 97.2804L230.857 97.8915L226.711 94.3881H224.53L219.873 96.4883L219.544 95.759L224.358 93.5881ZM179.254 94.4869H183.239L187.265 95.8656H210.687L210.7 96.6654L210.122 96.6845H210.799V115.379H209.999V96.6885L194.151 97.2103V115.379H193.351V97.2366L175.741 97.8164L179.254 94.4869ZM179.573 95.2869L177.821 96.9475L187.066 96.6431L183.106 95.2869H179.573Z" fill="white"/>
<path fill-rule="evenodd" clip-rule="evenodd" d="M193.99 74.4137V54.4608H194.79V74.4137H193.99ZM211.502 54.4608V74.4137H210.702V54.4608H211.502Z" fill="#A2A2A2"/>
<path fill-rule="evenodd" clip-rule="evenodd" d="M224.358 92.9402H227.004L232.408 97.5062L218.254 95.6916L224.358 92.9402ZM224.53 93.7402L221.163 95.258L229.822 96.368L226.711 93.7402H224.53ZM179.254 94.0376H183.239L187.265 95.4163H210.97L211.717 97.5373L194.79 97.4381V115.379H193.99V97.4334L175.783 97.3268L179.254 94.0376ZM194.79 96.6381L210.585 96.7306L210.404 96.2163H194.79V96.6381ZM193.99 96.2163V96.6334L177.778 96.5384L179.573 94.8376H183.106L187.132 96.2163H193.99Z" fill="#A1A1A1"/>
<path d="M273.715 404.47H268.304V390.585H273.627C279.458 390.585 282.462 393.421 282.462 397.5C282.462 401.579 279.347 404.47 273.715 404.47V404.47ZM273.715 392.78H271.507V402.275H273.539C274.324 402.375 275.126 402.322 275.882 402.12C276.637 401.919 277.325 401.572 277.891 401.109C278.455 400.648 278.881 400.082 279.135 399.457C279.388 398.834 279.461 398.17 279.347 397.518C279.438 396.883 279.355 396.238 279.104 395.634C278.851 395.026 278.438 394.474 277.895 394.018C277.351 393.563 276.692 393.217 275.966 393.005C275.238 392.789 274.462 392.712 273.693 392.78H273.715V392.78ZM285.489 404.47V390.585H295.23V392.835H288.604V396.073H293.662L294.103 398.378H288.669V402.22H295.472V404.47H285.489ZM302.894 404.47H298.079V390.585H302.961C306.737 390.585 308.527 391.994 308.527 394.244C308.544 394.878 308.318 395.499 307.882 396.017C307.444 396.539 306.819 396.93 306.097 397.134C307.01 397.297 307.823 397.723 308.394 398.336C308.964 398.949 309.253 399.709 309.211 400.482C309.211 403.171 306.825 404.47 302.894 404.47V404.47ZM302.894 392.616H301.282V396.274H302.762C304.661 396.274 305.655 395.579 305.655 394.445C305.655 393.311 304.728 392.616 302.784 392.616H302.894ZM302.894 398.195H301.216V402.439H302.938C304.97 402.439 306.163 401.726 306.163 400.354C306.163 398.982 304.97 398.195 302.85 398.195H302.894ZM311.95 404.47V390.585H315.174V404.47H311.95ZM325.976 392.891V404.47H322.729V392.891H317.759V390.585H330.791L331.233 392.891H325.976V392.891ZM257.945 420.64L242.483 451.208H232.389L224.769 426.824C224.704 426.256 224.467 425.71 224.081 425.24C223.694 424.769 223.171 424.389 222.56 424.135C219.54 422.948 216.358 422.075 213.085 421.536L213.306 420.64H229.562C230.629 420.631 231.664 420.942 232.479 421.518C233.29 422.091 233.824 422.891 233.98 423.769L238 441.458L247.939 420.64H257.945V420.64ZM297.505 441.239C297.505 433.171 284.03 432.733 284.119 429.11C284.119 428.013 285.4 426.86 288.161 426.549C291.388 426.298 294.636 426.771 297.571 427.921L299.227 421.446C296.4 420.565 293.409 420.106 290.392 420.092C280.961 420.092 274.312 424.244 274.246 430.19C274.246 434.598 278.995 437.049 282.617 438.513C286.24 439.977 287.587 440.964 287.565 442.318C287.565 444.366 284.605 445.263 281.845 445.299C278.433 445.368 275.058 444.707 272.037 443.379L270.314 450.074C273.708 451.153 277.308 451.705 280.938 451.702C290.967 451.702 297.526 447.586 297.571 441.239H297.505V441.239ZM322.42 451.208H331.255L323.524 420.64H315.351C314.483 420.642 313.634 420.857 312.909 421.258C312.188 421.656 311.623 422.225 311.287 422.891L297.018 451.208H307.047L309.035 446.653H321.316L322.42 451.208V451.208ZM311.751 440.378L316.898 429.001L319.792 440.47L311.751 440.378ZM271.596 420.64L263.687 451.208H254.146L262.031 420.64H271.596Z" fill="white"/>
</g>
<defs>
<filter id="filter0_d_6742_3" x="-24.5822" y="-21.9859" width="402.296" height="519.162" filterUnits="userSpaceOnUse" color-interpolation-filters="sRGB">
<feFlood flood-opacity="0" result="BackgroundImageFix"/>
<feColorMatrix in="SourceAlpha" type="matrix" values="0 0 0 0 0 0 0 0 0 0 0 0 0 0 0 0 0 0 127 0" result="hardAlpha"/>
<feOffset dy="1.6"/>
<feGaussianBlur stdDeviation="12.5"/>
<feColorMatrix type="matrix" values="0 0 0 0 0 0 0 0 0 0 0 0 0 0 0 0 0 0 0.1 0"/>
<feBlend mode="normal" in2="BackgroundImageFix" result="effect1_dropShadow_6742_3"/>
<feBlend mode="normal" in="SourceGraphic" in2="effect1_dropShadow_6742_3" result="shape"/>
</filter>
<linearGradient id="paint0_linear_6742_3" x1="347.459" y1="0.964715" x2="132.49" y2="135.188" gradientUnits="userSpaceOnUse">
<stop stop-color="white"/>
<stop offset="1" stop-color="#6A64D1"/>
</linearGradient>
<linearGradient id="paint1_linear_6742_3" x1="112.659" y1="125.895" x2="369.399" y2="475.519" gradientUnits="userSpaceOnUse">
<stop stop-color="#4840BB"/>
<stop offset="1" stop-color="#75CBCF"/>
</linearGradient>
<linearGradient id="paint2_linear_6742_3" x1="112.659" y1="125.895" x2="369.399" y2="475.519" gradientUnits="userSpaceOnUse">
<stop stop-color="#4840BB"/>
<stop offset="1" stop-color="#75CBCF"/>
</linearGradient>
<linearGradient id="paint3_linear_6742_3" x1="292.566" y1="414.852" x2="-69.0115" y2="175.134" gradientUnits="userSpaceOnUse">
<stop stop-color="#6EB4CC"/>
<stop offset="1" stop-color="#4941BC"/>
</linearGradient>
<linearGradient id="paint4_linear_6742_3" x1="292.566" y1="414.852" x2="-69.0115" y2="175.134" gradientUnits="userSpaceOnUse">
<stop stop-color="#6EB4CC"/>
<stop offset="1" stop-color="#4941BC"/>
</linearGradient>
<linearGradient id="paint5_linear_6742_3" x1="292.566" y1="414.852" x2="-69.0115" y2="175.134" gradientUnits="userSpaceOnUse">
<stop stop-color="#6EB4CC"/>
<stop offset="1" stop-color="#4941BC"/>
</linearGradient>
<linearGradient id="paint6_linear_6742_3" x1="292.566" y1="414.852" x2="-69.0115" y2="175.134" gradientUnits="userSpaceOnUse">
<stop stop-color="#6EB4CC"/>
<stop offset="1" stop-color="#4941BC"/>
</linearGradient>
<linearGradient id="paint7_linear_6742_3" x1="292.566" y1="414.852" x2="-69.0115" y2="175.134" gradientUnits="userSpaceOnUse">
<stop stop-color="#6EB4CC"/>
<stop offset="1" stop-color="#4941BC"/>
</linearGradient>
<linearGradient id="paint8_linear_6742_3" x1="292.566" y1="414.852" x2="-69.0115" y2="175.134" gradientUnits="userSpaceOnUse">
<stop stop-color="#6EB4CC"/>
<stop offset="1" stop-color="#4941BC"/>
</linearGradient>
<linearGradient id="paint9_linear_6742_3" x1="292.566" y1="414.852" x2="-69.0115" y2="175.134" gradientUnits="userSpaceOnUse">
<stop stop-color="#6EB4CC"/>
<stop offset="1" stop-color="#4941BC"/>
</linearGradient>
<linearGradient id="paint10_linear_6742_3" x1="292.566" y1="414.852" x2="-69.0115" y2="175.134" gradientUnits="userSpaceOnUse">
<stop stop-color="#6EB4CC"/>
<stop offset="1" stop-color="#4941BC"/>
</linearGradient>
<linearGradient id="paint11_linear_6742_3" x1="292.566" y1="414.852" x2="-69.0114" y2="175.134" gradientUnits="userSpaceOnUse">
<stop stop-color="#6EB4CC"/>
<stop offset="1" stop-color="#4941BC"/>
</linearGradient>
<linearGradient id="paint12_linear_6742_3" x1="292.566" y1="414.852" x2="-69.0115" y2="175.134" gradientUnits="userSpaceOnUse">
<stop stop-color="#6EB4CC"/>
<stop offset="1" stop-color="#4941BC"/>
</linearGradient>
<linearGradient id="paint13_linear_6742_3" x1="292.566" y1="414.852" x2="-69.0115" y2="175.134" gradientUnits="userSpaceOnUse">
<stop stop-color="#6EB4CC"/>
<stop offset="1" stop-color="#4941BC"/>
</linearGradient>
<linearGradient id="paint14_linear_6742_3" x1="292.566" y1="414.852" x2="-69.0115" y2="175.134" gradientUnits="userSpaceOnUse">
<stop stop-color="#6EB4CC"/>
<stop offset="1" stop-color="#4941BC"/>
</linearGradient>
<linearGradient id="paint15_linear_6742_3" x1="292.566" y1="414.852" x2="-69.0115" y2="175.134" gradientUnits="userSpaceOnUse">
<stop stop-color="#6EB4CC"/>
<stop offset="1" stop-color="#4941BC"/>
</linearGradient>
<linearGradient id="paint16_linear_6742_3" x1="292.566" y1="414.852" x2="-69.0115" y2="175.134" gradientUnits="userSpaceOnUse">
<stop stop-color="#6EB4CC"/>
<stop offset="1" stop-color="#4941BC"/>
</linearGradient>
<linearGradient id="paint17_linear_6742_3" x1="292.566" y1="414.852" x2="-69.0116" y2="175.135" gradientUnits="userSpaceOnUse">
<stop stop-color="#6EB4CC"/>
<stop offset="1" stop-color="#4941BC"/>
</linearGradient>
<linearGradient id="paint18_linear_6742_3" x1="292.566" y1="414.852" x2="-69.0114" y2="175.134" gradientUnits="userSpaceOnUse">
<stop stop-color="#6EB4CC"/>
<stop offset="1" stop-color="#4941BC"/>
</linearGradient>
<linearGradient id="paint19_linear_6742_3" x1="292.566" y1="414.852" x2="-69.0114" y2="175.134" gradientUnits="userSpaceOnUse">
<stop stop-color="#6EB4CC"/>
<stop offset="1" stop-color="#4941BC"/>
</linearGradient>
<linearGradient id="paint20_linear_6742_3" x1="292.566" y1="414.852" x2="-69.0115" y2="175.134" gradientUnits="userSpaceOnUse">
<stop stop-color="#6EB4CC"/>
<stop offset="1" stop-color="#4941BC"/>
</linearGradient>
<linearGradient id="paint21_linear_6742_3" x1="292.566" y1="414.852" x2="-69.0115" y2="175.134" gradientUnits="userSpaceOnUse">
<stop stop-color="#6EB4CC"/>
<stop offset="1" stop-color="#4941BC"/>
</linearGradient>
<linearGradient id="paint22_linear_6742_3" x1="292.566" y1="414.852" x2="-69.0115" y2="175.134" gradientUnits="userSpaceOnUse">
<stop stop-color="#6EB4CC"/>
<stop offset="1" stop-color="#4941BC"/>
</linearGradient>
<linearGradient id="paint23_linear_6742_3" x1="292.566" y1="414.852" x2="-69.0115" y2="175.134" gradientUnits="userSpaceOnUse">
<stop stop-color="#6EB4CC"/>
<stop offset="1" stop-color="#4941BC"/>
</linearGradient>
<linearGradient id="paint24_linear_6742_3" x1="292.566" y1="414.852" x2="-69.0115" y2="175.134" gradientUnits="userSpaceOnUse">
<stop stop-color="#6EB4CC"/>
<stop offset="1" stop-color="#4941BC"/>
</linearGradient>
<linearGradient id="paint25_linear_6742_3" x1="292.566" y1="414.852" x2="-69.0115" y2="175.134" gradientUnits="userSpaceOnUse">
<stop stop-color="#6EB4CC"/>
<stop offset="1" stop-color="#4941BC"/>
</linearGradient>
<linearGradient id="paint26_linear_6742_3" x1="292.566" y1="414.852" x2="-69.0116" y2="175.134" gradientUnits="userSpaceOnUse">
<stop stop-color="#6EB4CC"/>
<stop offset="1" stop-color="#4941BC"/>
</linearGradient>
<linearGradient id="paint27_linear_6742_3" x1="292.566" y1="414.852" x2="-69.0115" y2="175.134" gradientUnits="userSpaceOnUse">
<stop stop-color="#6EB4CC"/>
<stop offset="1" stop-color="#4941BC"/>
</linearGradient>
<linearGradient id="paint28_linear_6742_3" x1="292.566" y1="414.852" x2="-69.0115" y2="175.134" gradientUnits="userSpaceOnUse">
<stop stop-color="#6EB4CC"/>
<stop offset="1" stop-color="#4941BC"/>
</linearGradient>
<linearGradient id="paint29_linear_6742_3" x1="292.566" y1="414.852" x2="-69.0115" y2="175.134" gradientUnits="userSpaceOnUse">
<stop stop-color="#6EB4CC"/>
<stop offset="1" stop-color="#4941BC"/>
</linearGradient>
<linearGradient id="paint30_linear_6742_3" x1="292.566" y1="414.852" x2="-69.0113" y2="175.134" gradientUnits="userSpaceOnUse">
<stop stop-color="#6EB4CC"/>
<stop offset="1" stop-color="#4941BC"/>
</linearGradient>
<linearGradient id="paint31_linear_6742_3" x1="292.566" y1="414.852" x2="-69.0115" y2="175.134" gradientUnits="userSpaceOnUse">
<stop stop-color="#6EB4CC"/>
<stop offset="1" stop-color="#4941BC"/>
</linearGradient>
<linearGradient id="paint32_linear_6742_3" x1="292.566" y1="414.852" x2="-69.0115" y2="175.134" gradientUnits="userSpaceOnUse">
<stop stop-color="#6EB4CC"/>
<stop offset="1" stop-color="#4941BC"/>
</linearGradient>
<linearGradient id="paint33_linear_6742_3" x1="292.566" y1="414.852" x2="-69.0115" y2="175.134" gradientUnits="userSpaceOnUse">
<stop stop-color="#6EB4CC"/>
<stop offset="1" stop-color="#4941BC"/>
</linearGradient>
<linearGradient id="paint34_linear_6742_3" x1="292.566" y1="414.852" x2="-69.0114" y2="175.134" gradientUnits="userSpaceOnUse">
<stop stop-color="#6EB4CC"/>
<stop offset="1" stop-color="#4941BC"/>
</linearGradient>
<linearGradient id="paint35_linear_6742_3" x1="292.566" y1="414.852" x2="-69.0114" y2="175.134" gradientUnits="userSpaceOnUse">
<stop stop-color="#6EB4CC"/>
<stop offset="1" stop-color="#4941BC"/>
</linearGradient>
<linearGradient id="paint36_linear_6742_3" x1="292.566" y1="414.852" x2="-69.0115" y2="175.134" gradientUnits="userSpaceOnUse">
<stop stop-color="#6EB4CC"/>
<stop offset="1" stop-color="#4941BC"/>
</linearGradient>
<linearGradient id="paint37_linear_6742_3" x1="292.566" y1="414.852" x2="-69.0115" y2="175.134" gradientUnits="userSpaceOnUse">
<stop stop-color="#6EB4CC"/>
<stop offset="1" stop-color="#4941BC"/>
</linearGradient>
<linearGradient id="paint38_linear_6742_3" x1="292.566" y1="414.852" x2="-69.0115" y2="175.134" gradientUnits="userSpaceOnUse">
<stop stop-color="#6EB4CC"/>
<stop offset="1" stop-color="#4941BC"/>
</linearGradient>
<linearGradient id="paint39_linear_6742_3" x1="292.566" y1="414.852" x2="-69.0114" y2="175.134" gradientUnits="userSpaceOnUse">
<stop stop-color="#6EB4CC"/>
<stop offset="1" stop-color="#4941BC"/>
</linearGradient>
<linearGradient id="paint40_linear_6742_3" x1="292.566" y1="414.852" x2="-69.0114" y2="175.134" gradientUnits="userSpaceOnUse">
<stop stop-color="#6EB4CC"/>
<stop offset="1" stop-color="#4941BC"/>
</linearGradient>
<linearGradient id="paint41_linear_6742_3" x1="292.566" y1="414.852" x2="-69.0115" y2="175.134" gradientUnits="userSpaceOnUse">
<stop stop-color="#6EB4CC"/>
<stop offset="1" stop-color="#4941BC"/>
</linearGradient>
<linearGradient id="paint42_linear_6742_3" x1="292.566" y1="414.852" x2="-69.0115" y2="175.134" gradientUnits="userSpaceOnUse">
<stop stop-color="#6EB4CC"/>
<stop offset="1" stop-color="#4941BC"/>
</linearGradient>
<linearGradient id="paint43_linear_6742_3" x1="203.955" y1="49.948" x2="203.762" y2="115.367" gradientUnits="userSpaceOnUse">
<stop offset="0.144" stop-color="#FEFEFE"/>
<stop offset="1" stop-color="#C1C1C1"/>
</linearGradient>
<clipPath id="clip0_6742_3">
<rect width="352.916" height="469.612" fill="white" transform="translate(0.417847 0.964722)"/>
</clipPath>
</defs>
</svg>
